<?xml version="1.0" ?><svg width="512px" height="512px" viewBox="0 0 512 512" style="enable-background:new 0 0 512 512;" version="1.1" xml:space="preserve" xmlns="http://www.w3.org/2000/svg" xmlns:xlink="http://www.w3.org/1999/xlink"><style type="text/css">
	.st0{fill:#333333;}
	.st1{fill:none;stroke:#333333;stroke-width:32;stroke-linecap:round;stroke-linejoin:round;stroke-miterlimit:10;}
</style><g id="Layer_1"/><g id="Layer_2"><g><g><path class="st0" d="M164.98,183.14c-15.12,25.88-19.71,56.21-13.79,84.8l0.25-0.25l92.86,92.86l-0.25,0.25     c28.59,5.93,58.92,1.33,84.8-13.79L164.98,183.14z"/></g><g><path class="st0" d="M354.91,329.94L182.06,157.09c-12.81-12.81-12.81-33.59,0-46.41l0,0c12.81-12.81,33.59-12.81,46.41,0     l172.84,172.84c12.81,12.81,12.81,33.59,0,46.41l0,0C388.5,342.75,367.72,342.75,354.91,329.94z"/></g><g><g><rect class="st0" height="131.33" transform="matrix(0.707 -0.7073 0.7073 0.707 -164.2475 231.9694)" width="0.2" x="197.71" y="248.53"/></g><g><path class="st0" d="M57.01,362.13c-25.04,25.04-25.04,65.64,0,90.69l2.18,2.18c25.04,25.04,65.64,25.04,90.69,0l72.73-72.73      l-92.86-92.86L57.01,362.13z M140.11,393.45l-19.33,19.33c-2.98,2.98-6.88,4.47-10.78,4.47c-3.9,0-7.8-1.49-10.78-4.47      c-5.95-5.95-5.95-15.61,0-21.56l19.33-19.33c5.95-5.95,15.61-5.95,21.56,0C146.07,377.84,146.07,387.5,140.11,393.45z"/></g></g><g><g><g><path class="st0" d="M347.3,179.94c-3.9,0-7.8-1.49-10.78-4.47c-5.95-5.95-5.95-15.61,0-21.56L370,120.44       c5.95-5.95,15.61-5.95,21.56,0c5.95,5.95,5.95,15.61,0,21.56l-33.48,33.48C355.11,178.46,351.2,179.94,347.3,179.94z"/></g></g><g><g><g><path class="st0" d="M406.4,232.48c-7.43,0-13.93-5.44-15.06-13c-1.24-8.33,4.51-16.09,12.84-17.32l46.83-6.97        c8.32-1.24,16.08,4.51,17.32,12.84c1.24,8.33-4.51,16.09-12.84,17.32l-46.83,6.97C407.9,232.43,407.15,232.48,406.4,232.48z"/></g></g><g><g><path class="st0" d="M294.78,120.83c-0.75,0-1.5-0.05-2.26-0.17c-8.33-1.24-14.08-9-12.84-17.32l6.97-46.83        c1.24-8.33,8.99-14.07,17.32-12.84c8.33,1.24,14.08,9,12.84,17.32l-6.97,46.83C308.72,115.39,302.21,120.83,294.78,120.83z"/></g></g></g></g></g></g></svg>